# xmcd
#
# Track frame offsets:
#	150
#	17697
#	29790
#	59295
#	75167
#	94905
#	119732
#	137732
#	152690
#	187275
#	198547
#	209497
#	230129
#	265470
#	290275
#	310174
#
# Disc length: 4530 seconds
#
# Revision: 0
# Processed by: cddbd v1.5.1PL0 Copyright (c) Steve Scherf et al.
# Submitted via: dBpowerAMP V4.0
#
DISCID=f311b010
DTITLE=Savoy Brown - Getting To The Point and Raw Live 'n' Blue Vol. 2
DYEAR=1900
DGENRE=Blues
TTITLE0=Flood In Houston
TTITLE1=Stay With Me Baby
TTITLE2=Honey Bee
TTITLE3=The Incredible Gnome Meets Jaxman
TTITLE4=Give Me A Penny
TTITLE5=Mr. Downchild
TTITLE6=Getting To The Point
TTITLE7=Big City Limits
TTITLE8=You Need Love
TTITLE9=Walking By Myself
TTITLE10=Taste And Try, Before You Buy
TTITLE11=Someday People
TTITLE12=All I Can Do Is Cry
TTITLE13=Wang Dang Doodle
TTITLE14=Louisiana Blues
TTITLE15=The Boogie
EXTD=
EXTT0=
EXTT1=
EXTT2=
EXTT3=
EXTT4=
EXTT5=
EXTT6=
EXTT7=
EXTT8=
EXTT9=
EXTT10=
EXTT11=
EXTT12=
EXTT13=
EXTT14=
EXTT15=
PLAYORDER=
